<?xml version="1.0" encoding="UTF-8" standalone="no"?>
<!-- Created with Inkscape (http://www.inkscape.org/) -->

<svg
   xmlns:dc="http://purl.org/dc/elements/1.1/"
   xmlns:cc="http://creativecommons.org/ns#"
   xmlns:rdf="http://www.w3.org/1999/02/22-rdf-syntax-ns#"
   xmlns:svg="http://www.w3.org/2000/svg"
   xmlns="http://www.w3.org/2000/svg"
   xmlns:sodipodi="http://sodipodi.sourceforge.net/DTD/sodipodi-0.dtd"
   xmlns:inkscape="http://www.inkscape.org/namespaces/inkscape"
   id="svg3020"
   version="1.1"
   inkscape:version="0.48.0 r9654"
   width="353.75"
   height="353.75"
   xml:space="preserve"
   sodipodi:docname="sixsq.pdf"><metadata
     id="metadata3026"><rdf:RDF><cc:Work
         rdf:about=""><dc:format>image/svg+xml</dc:format><dc:type
           rdf:resource="http://purl.org/dc/dcmitype/StillImage" /><dc:title></dc:title></cc:Work></rdf:RDF></metadata><defs
     id="defs3024" /><sodipodi:namedview
     pagecolor="#ffffff"
     bordercolor="#666666"
     borderopacity="1"
     objecttolerance="10"
     gridtolerance="10"
     guidetolerance="10"
     inkscape:pageopacity="0"
     inkscape:pageshadow="2"
     inkscape:window-width="640"
     inkscape:window-height="480"
     id="namedview3022"
     showgrid="false"
     inkscape:zoom="0.74063604"
     inkscape:cx="176.875"
     inkscape:cy="176.875"
     inkscape:window-x="150"
     inkscape:window-y="70"
     inkscape:window-maximized="0"
     inkscape:current-layer="g3028" /><g
     id="g3028"
     inkscape:groupmode="layer"
     inkscape:label="sixsq"
     transform="matrix(1.25,0,0,-1.25,0,353.75)"><path
       d="m 40.672,37.651 205.403,0 0,205.403 -205.403,0 0,-205.403 z"
       style="fill:#b70b0b;fill-opacity:1;fill-rule:nonzero;stroke:none"
       id="path3030" /><path
       d="m 66.421,91.772 c -2.395,1.283 -5.729,2.137 -8.381,2.137 -1.794,0 -4.873,-0.768 -4.873,-2.992 0,-2.993 4.873,-3.42 7.012,-3.849 7.269,-1.453 12.74,-4.873 12.74,-12.996 0,-11.544 -10.517,-16.333 -20.692,-16.333 -6.242,0 -12.399,1.796 -17.701,5.044 l 5.643,10.861 c 3.165,-2.224 8.465,-4.446 12.314,-4.446 1.967,0 4.874,0.941 4.874,3.334 0,3.42 -4.874,3.592 -9.748,4.874 -4.875,1.283 -9.748,3.678 -9.748,11.544 0,10.775 9.748,15.563 19.325,15.563 4.96,0 9.918,-0.77 14.451,-2.822 l -5.216,-9.919"
       style="fill:#ffffff;fill-opacity:1;fill-rule:nonzero;stroke:none"
       id="path3032" /><path
       d="m 88.395,59.192 -15.561,0 0,43.867 15.561,0 0,-43.867 z m 0.941,60.712 c 0,-4.788 -3.933,-8.721 -8.721,-8.721 -4.788,0 -8.722,3.933 -8.722,8.721 0,4.789 3.934,8.723 8.722,8.723 4.788,0 8.721,-3.934 8.721,-8.723"
       style="fill:#ffffff;fill-opacity:1;fill-rule:nonzero;stroke:none"
       id="path3034" /><path
       d="m 90.447,103.059 19.753,0 7.866,-9.064 7.867,9.064 20.095,0 -18.128,-20.093 21.891,-23.774 -20.437,0 -11.288,12.998 -11.286,-12.998 -20.438,0 21.891,23.774 -17.786,20.093"
       style="fill:#ffffff;fill-opacity:1;fill-rule:nonzero;stroke:none"
       id="path3036" /><path
       d="m 173.476,91.772 c -2.394,1.283 -5.728,2.137 -8.38,2.137 -1.795,0 -4.873,-0.768 -4.873,-2.992 0,-2.993 4.873,-3.42 7.012,-3.849 7.267,-1.453 12.74,-4.873 12.74,-12.996 0,-11.544 -10.518,-16.333 -20.693,-16.333 -6.242,0 -12.4,1.796 -17.699,5.044 l 5.642,10.861 c 3.164,-2.224 8.465,-4.446 12.313,-4.446 1.966,0 4.875,0.941 4.875,3.334 0,3.42 -4.875,3.592 -9.748,4.874 -4.875,1.283 -9.748,3.678 -9.748,11.544 0,10.775 9.748,15.563 19.324,15.563 4.961,0 9.92,-0.77 14.452,-2.822 l -5.217,-9.919"
       style="fill:#ffffff;fill-opacity:1;fill-rule:nonzero;stroke:none"
       id="path3038" /><path
       d="m 195.024,81.084 c 0,-5.559 3.677,-9.834 10.005,-9.834 6.327,0 10.005,4.275 10.005,9.834 0,5.386 -3.678,9.919 -10.005,9.919 -6.328,0 -10.005,-4.533 -10.005,-9.919 z m 35.059,-43.782 -15.563,0 0,26.081 c -3.25,-3.848 -8.551,-5.644 -13.596,-5.644 -13.084,0 -21.975,10.603 -21.975,23.26 0,12.482 9.149,23.514 22.146,23.514 5.131,0 10.518,-2.053 13.254,-6.412 l 0.171,0 0,4.958 15.563,0 0,-65.757"
       style="fill:#ffffff;fill-opacity:1;fill-rule:nonzero;stroke:none"
       id="path3040" /><path
       d="m 249.493,67.487 c 0,-5.472 -4.448,-10.005 -10.005,-10.005 -5.558,0 -10.005,4.533 -10.005,10.005 0,5.558 4.447,10.005 10.005,10.005 5.557,0 10.005,-4.447 10.005,-10.005"
       style="fill:#ffffff;fill-opacity:1;fill-rule:nonzero;stroke:none"
       id="path3042" /></g></svg>